<svg xmlns="http://www.w3.org/2000/svg" width="51" height="38.926" viewBox="0 0 51 38.926">
  <g id="Group_783" data-name="Group 783" transform="translate(0.75 0.75)">
    <g id="Group_782" data-name="Group 782">
      <g id="Group_778" data-name="Group 778" transform="translate(30.516 14.834) rotate(90)">
        <line id="Line_36" data-name="Line 36" y2="3.391" fill="none" stroke="#000" stroke-linecap="round" stroke-width="1.5"/>
        <line id="Line_37" data-name="Line 37" y2="3.391" transform="translate(0 27.125)" fill="none" stroke="#000" stroke-linecap="round" stroke-width="1.5"/>
      </g>
      <g id="Group_781" data-name="Group 781" transform="translate(4.469)">
        <g id="Ellipse_87" data-name="Ellipse 87" transform="translate(1.388 5.516)" fill="none" stroke="#000" stroke-width="1.5">
          <circle cx="9" cy="9" r="9" stroke="none"/>
          <circle cx="9" cy="9" r="8.25" fill="none"/>
        </g>
        <g id="Group_777" data-name="Group 777" transform="translate(10.789)">
          <line id="Line_36-2" data-name="Line 36" y2="3.391" fill="none" stroke="#000" stroke-linecap="round" stroke-width="1.5"/>
          <line id="Line_37-2" data-name="Line 37" y2="3.391" transform="translate(0 27.125)" fill="none" stroke="#000" stroke-linecap="round" stroke-width="1.5"/>
        </g>
        <g id="Group_779" data-name="Group 779" transform="translate(21.578 4.238) rotate(45)">
          <line id="Line_36-3" data-name="Line 36" y2="3.391" fill="none" stroke="#000" stroke-linecap="round" stroke-width="1.5"/>
          <line id="Line_37-3" data-name="Line 37" y2="3.391" transform="translate(0 27.125)" fill="none" stroke="#000" stroke-linecap="round" stroke-width="1.5"/>
        </g>
        <g id="Group_780" data-name="Group 780" transform="translate(21.578 25.816) rotate(135)">
          <line id="Line_36-4" data-name="Line 36" y2="3.391" fill="none" stroke="#000" stroke-linecap="round" stroke-width="1.5"/>
          <line id="Line_37-4" data-name="Line 37" y2="3.391" transform="translate(0 27.125)" fill="none" stroke="#000" stroke-linecap="round" stroke-width="1.5"/>
        </g>
      </g>
    </g>
    <path id="iconmonstr-cloud-1" d="M19,3A11.862,11.862,0,0,0,7.158,14.229,8.7,8.7,0,0,0,8.708,31.5H29.292a8.7,8.7,0,0,0,1.55-17.271A11.862,11.862,0,0,0,19,3Z" transform="translate(11.5 5.926)" fill="#bbcfdc" stroke="#000" stroke-width="1.5"/>
  </g>
</svg>
