<svg xmlns="http://www.w3.org/2000/svg" width="22.719" height="17.372" viewBox="0 0 22.719 17.372">
  <g id="Group_1090" data-name="Group 1090" transform="translate(-308.1 -580.084)">
    <g id="Group_782" data-name="Group 782" transform="translate(308.5 580.484)">
      <g id="Group_778" data-name="Group 778" transform="translate(13.512 6.569) rotate(90)">
        <line id="Line_36" data-name="Line 36" y2="1.501" fill="none" stroke="#000" stroke-linecap="round" stroke-width="0.8"/>
        <line id="Line_37" data-name="Line 37" y2="1.501" transform="translate(0 12.011)" fill="none" stroke="#000" stroke-linecap="round" stroke-width="0.8"/>
      </g>
      <g id="Group_781" data-name="Group 781" transform="translate(1.979 0)">
        <g id="Ellipse_87" data-name="Ellipse 87" transform="translate(0.521 2.662)" fill="none" stroke="#000" stroke-width="0.8">
          <circle cx="4" cy="4" r="4" stroke="none"/>
          <circle cx="4" cy="4" r="3.6" fill="none"/>
        </g>
        <g id="Group_777" data-name="Group 777" transform="translate(4.777)">
          <line id="Line_36-2" data-name="Line 36" y2="1.501" fill="none" stroke="#000" stroke-linecap="round" stroke-width="0.8"/>
          <line id="Line_37-2" data-name="Line 37" y2="1.501" transform="translate(0 12.011)" fill="none" stroke="#000" stroke-linecap="round" stroke-width="0.8"/>
        </g>
        <g id="Group_779" data-name="Group 779" transform="translate(9.555 1.877) rotate(45)">
          <line id="Line_36-3" data-name="Line 36" y2="1.501" transform="translate(0 0)" fill="none" stroke="#000" stroke-linecap="round" stroke-width="0.8"/>
          <line id="Line_37-3" data-name="Line 37" y2="1.501" transform="translate(0 12.011)" fill="none" stroke="#000" stroke-linecap="round" stroke-width="0.8"/>
        </g>
        <g id="Group_780" data-name="Group 780" transform="translate(9.555 11.431) rotate(135)">
          <line id="Line_36-4" data-name="Line 36" y2="1.501" transform="translate(0 0)" fill="none" stroke="#000" stroke-linecap="round" stroke-width="0.8"/>
          <line id="Line_37-4" data-name="Line 37" y2="1.501" transform="translate(0 12.011)" fill="none" stroke="#000" stroke-linecap="round" stroke-width="0.8"/>
        </g>
      </g>
    </g>
    <path id="iconmonstr-cloud-1" d="M8.413,3A5.252,5.252,0,0,0,3.17,7.972a3.854,3.854,0,0,0,.686,7.648H12.97a3.854,3.854,0,0,0,.686-7.648A5.252,5.252,0,0,0,8.413,3Z" transform="translate(313.592 581.437)" fill="#f1eee8" stroke="#000" stroke-width="0.8"/>
  </g>
</svg>
