<svg xmlns="http://www.w3.org/2000/svg" width="96.5" height="125.5" viewBox="0 0 96.5 125.5">
  <g id="Group_757" data-name="Group 757" transform="translate(-932.5 -453.699)">
    <g id="Rectangle_1317" data-name="Rectangle 1317" transform="translate(939 510.699)" fill="#f1eee8" stroke="#000" stroke-linecap="round" stroke-linejoin="round" stroke-width="2">
      <rect width="16" height="68" stroke="none"/>
      <rect x="1" y="1" width="14" height="66" fill="none"/>
    </g>
    <g id="Rectangle_1318" data-name="Rectangle 1318" transform="translate(973 510.699)" fill="#f1eee8" stroke="#000" stroke-linecap="round" stroke-linejoin="round" stroke-width="2">
      <rect width="16" height="68" stroke="none"/>
      <rect x="1" y="1" width="14" height="66" fill="none"/>
    </g>
    <g id="Path_1452" data-name="Path 1452" transform="translate(936.451 470.712)" fill="#f1eee8">
      <path d="M 34.34469604492188 44.18667984008789 C 25.08310699462891 44.18667984008789 17.14948463439941 44.12412643432617 11.40149593353271 44.00576019287109 C 4.546594142913818 43.8646125793457 1.971809387207031 43.66641998291016 1.006449103355408 43.53993606567383 C 1.101302266120911 37.96232223510742 2.242515087127686 32.55149841308594 4.402236938476563 27.44533920288086 C 6.582990169525146 22.28944396972656 9.705142974853516 17.65878486633301 13.68196678161621 13.68196201324463 C 17.65879058837891 9.705138206481934 22.28944969177246 6.582985401153564 27.44534301757813 4.402232646942139 C 32.78280258178711 2.14467978477478 38.45316696166992 0.9999973773956299 44.29893112182617 0.9999973773956299 C 50.14468383789063 0.9999973773956299 55.81504821777344 2.14467978477478 61.15251922607422 4.402232646942139 C 66.30840301513672 6.582985401153564 70.93907165527344 9.705138206481934 74.9158935546875 13.68196201324463 C 78.89272308349609 17.65878486633301 82.01486968994141 22.28944396972656 84.19562530517578 27.44533920288086 C 86.34294891357422 32.52217864990234 87.48342895507813 37.90069198608398 87.58968353271484 43.44435882568359 C 82.99314117431641 43.78766632080078 58.43009567260742 44.18667984008789 34.34469604492188 44.18667984008789 Z" stroke="none"/>
      <path d="M 44.29893112182617 2.000003814697266 C 38.58773040771484 2.000003814697266 33.04842376708984 3.118095397949219 27.83489227294922 5.3232421875 C 22.79819488525391 7.453575134277344 18.27436828613281 10.50376129150391 14.38906097412109 14.38906860351563 C 10.50376129150391 18.27437591552734 7.453567504882813 22.79820251464844 5.323234558105469 27.83489608764648 C 3.33209228515625 32.54247665405273 2.227249145507813 37.51571273803711 2.03155517578125 42.64123153686523 C 3.400955200195313 42.75512313842773 6.168861389160156 42.90129470825195 11.75230407714844 43.01266860961914 C 17.45943450927734 43.12651062011719 25.27173233032227 43.18668365478516 34.34463882446289 43.18668365478516 C 45.82187652587891 43.18668365478516 58.59695816040039 43.09310913085938 69.39422607421875 42.92995071411133 C 78.76612091064453 42.78832626342773 84.12330627441406 42.62977981567383 86.56083679199219 42.50375747680664 C 86.35081481933594 37.42667770385742 85.24800109863281 32.50047302246094 83.27462768554688 27.83489608764648 C 81.14427947998047 22.79820251464844 78.09409332275391 18.27437591552734 74.20878601074219 14.38906860351563 C 70.32347869873047 10.50376129150391 65.79965209960938 7.453575134277344 60.76296997070313 5.3232421875 C 55.54942321777344 3.118095397949219 50.0101318359375 2.000003814697266 44.29893112182617 2.000003814697266 M 44.29893112182617 3.814697265625e-06 C 68.76454162597656 3.814697265625e-06 88.59786224365234 19.83330917358398 88.59786224365234 44.29893493652344 C 88.59786224365234 44.73983001708984 59.25743865966797 45.18668365478516 34.34464263916016 45.18668365478516 C 16.18321990966797 45.18668365478516 0.375457763671875 44.94924926757813 0 44.29893493652344 C 0 19.83330917358398 19.83330535888672 3.814697265625e-06 44.29893112182617 3.814697265625e-06 Z" stroke="none" fill="#000"/>
    </g>
    <g id="Rectangle_1319" data-name="Rectangle 1319" transform="translate(1005 510.699)" fill="#f1eee8" stroke="#000" stroke-linecap="round" stroke-linejoin="round" stroke-width="2">
      <rect width="16" height="68" stroke="none"/>
      <rect x="1" y="1" width="14" height="66" fill="none"/>
    </g>
    <g id="Rectangle_1321" data-name="Rectangle 1321" transform="translate(1029 504.144) rotate(90)" fill="#f1eee8" stroke="#000" stroke-linecap="round" stroke-linejoin="round" stroke-width="2">
      <rect width="16.083" height="96.5" stroke="none"/>
      <rect x="1" y="1" width="14.083" height="94.5" fill="none"/>
    </g>
    <g id="Rectangle_1322" data-name="Rectangle 1322" transform="translate(1029 563.116) rotate(90)" fill="#f1eee8" stroke="#000" stroke-linecap="round" stroke-linejoin="round" stroke-width="2">
      <rect width="16.083" height="96.5" stroke="none"/>
      <rect x="1" y="1" width="14.083" height="94.5" fill="none"/>
    </g>
    <line id="Line_32" data-name="Line 32" y1="14.296" transform="translate(980.75 457.681)" fill="none" stroke="#000" stroke-width="2"/>
    <rect id="Rectangle_1323" data-name="Rectangle 1323" width="16" height="7" transform="translate(980 454.699)" fill="#f1eee8" stroke="#000" stroke-linecap="round" stroke-linejoin="round" stroke-width="2"/>
    <g id="Ellipse_85" data-name="Ellipse 85" transform="translate(973 481.699)" fill="none" stroke="#000" stroke-width="2">
      <circle cx="7" cy="7" r="7" stroke="none"/>
      <circle cx="7" cy="7" r="6" fill="none"/>
    </g>
  </g>
</svg>
