<svg xmlns="http://www.w3.org/2000/svg" width="96.989" height="68.7" viewBox="0 0 96.989 68.7">
  <g id="iconmonstr-construction-10" transform="translate(0 -12.806)" fill="none" fill-rule="evenodd">
    <path d="M40.412,61.3V81.507H0V61.3Zm40.412,0V81.507H44.453V61.3ZM96.989,37.053V57.259H68.7V37.053Zm-68.7,0V57.259H0V37.053Zm36.371,0V57.259H32.33V37.053ZM40.412,12.806V33.012H0V12.806Zm40.412,0V33.012H44.453V12.806Z" stroke="none"/>
    <path d="M 78.82410430908203 79.50669097900391 L 78.82410430908203 63.3006591796875 L 46.45325088500977 63.3006591796875 L 46.45325088500977 79.50669097900391 L 78.82410430908203 79.50669097900391 M 38.41205215454102 79.50669097900391 L 38.41205215454102 63.3006591796875 L 2.000007629394531 63.3006591796875 L 2.000007629394531 79.50669097900391 L 38.41205215454102 79.50669097900391 M 94.98893737792969 55.25946044921875 L 94.98893737792969 39.05342864990234 L 70.70049285888672 39.05342864990234 L 70.70049285888672 55.25946044921875 L 94.98893737792969 55.25946044921875 M 62.65927886962891 55.25946044921875 L 62.65927886962891 39.05342864990234 L 34.32963562011719 39.05342864990234 L 34.32963562011719 55.25946044921875 L 62.65927886962891 55.25946044921875 M 26.28843688964844 55.25946044921875 L 26.28843688964844 39.05342864990234 L 2.000007629394531 39.05342864990234 L 2.000007629394531 55.25946044921875 L 26.28843688964844 55.25946044921875 M 78.82410430908203 31.01221656799316 L 78.82410430908203 14.80620193481445 L 46.45325088500977 14.80620193481445 L 46.45325088500977 31.01221656799316 L 78.82410430908203 31.01221656799316 M 38.41205215454102 31.01221656799316 L 38.41205215454102 14.80620193481445 L 2.000007629394531 14.80620193481445 L 2.000007629394531 31.01221656799316 L 38.41205215454102 31.01221656799316 M 80.82410430908203 81.50669097900391 L 44.45325088500977 81.50669097900391 L 44.45325088500977 61.3006591796875 L 80.82410430908203 61.3006591796875 L 80.82410430908203 81.50669097900391 Z M 40.41205215454102 81.50669097900391 L 7.731410732958466e-06 81.50669097900391 L 7.731410732958466e-06 61.3006591796875 L 40.41205215454102 61.3006591796875 L 40.41205215454102 81.50669097900391 Z M 96.98893737792969 57.25946044921875 L 68.70049285888672 57.25946044921875 L 68.70049285888672 37.05342864990234 L 96.98893737792969 37.05342864990234 L 96.98893737792969 57.25946044921875 Z M 64.65927886962891 57.25946044921875 L 32.32963562011719 57.25946044921875 L 32.32963562011719 37.05342864990234 L 64.65927886962891 37.05342864990234 L 64.65927886962891 57.25946044921875 Z M 28.28843688964844 57.25946044921875 L 7.731410732958466e-06 57.25946044921875 L 7.731410732958466e-06 37.05342864990234 L 28.28843688964844 37.05342864990234 L 28.28843688964844 57.25946044921875 Z M 80.82410430908203 33.01221466064453 L 44.45325088500977 33.01221466064453 L 44.45325088500977 12.80620193481445 L 80.82410430908203 12.80620193481445 L 80.82410430908203 33.01221466064453 Z M 40.41205215454102 33.01221466064453 L 7.731410732958466e-06 33.01221466064453 L 7.731410732958466e-06 12.80620193481445 L 40.41205215454102 12.80620193481445 L 40.41205215454102 33.01221466064453 Z" stroke="none" fill="#000"/>
  </g>
</svg>
