<svg xmlns="http://www.w3.org/2000/svg" width="20" height="20" viewBox="0 0 20 20">
  <g id="Group_771" data-name="Group 771" transform="translate(-139 -5016)">
    <path id="Subtraction_11" data-name="Subtraction 11" d="M10,20A10,10,0,1,1,20,10,10.011,10.011,0,0,1,10,20ZM5.584,10.28v.972h1.68A3.684,3.684,0,0,0,11.032,14.2a5.05,5.05,0,0,0,1.7-.288V12.872a4.617,4.617,0,0,1-1.68.337,2.588,2.588,0,0,1-2.628-1.957h4.308V10.28h-4.5l0-.038c-.011-.176-.022-.358-.022-.538a5.1,5.1,0,0,1,.036-.612h4.488V8.12H8.464A2.645,2.645,0,0,1,11.092,6.3a4.1,4.1,0,0,1,1.644.347V5.6a5.008,5.008,0,0,0-1.716-.3A3.671,3.671,0,0,0,7.276,8.12H5.584v.972H7.1c-.011.2-.023.408-.023.612s.012.387.023.576Z" transform="translate(139 5016)"/>
  </g>
</svg>
