<svg xmlns="http://www.w3.org/2000/svg" xmlns:xlink="http://www.w3.org/1999/xlink" width="49.997" height="50.001" viewBox="0 0 49.997 50.001">
  <defs>
    <filter id="Subtraction_13" x="0" y="0" width="49.997" height="50.001" filterUnits="userSpaceOnUse">
      <feOffset dy="3" input="SourceAlpha"/>
      <feGaussianBlur stdDeviation="3" result="blur"/>
      <feFlood flood-opacity="0.161"/>
      <feComposite operator="in" in2="blur"/>
      <feComposite in="SourceGraphic"/>
    </filter>
  </defs>
  <g transform="matrix(1, 0, 0, 1, 0, 0)" filter="url(#Subtraction_13)">
    <path id="Subtraction_13-2" data-name="Subtraction 13" d="M-13354,4875a15.9,15.9,0,0,1-11.313-4.687A15.9,15.9,0,0,1-13370,4859a15.9,15.9,0,0,1,4.685-11.312A15.893,15.893,0,0,1-13354,4843a15.893,15.893,0,0,1,11.314,4.687A15.9,15.9,0,0,1-13338,4859a15.9,15.9,0,0,1-4.685,11.315A15.9,15.9,0,0,1-13354,4875Zm3.486-14.368-1.765,2.211-2.231,2.973h2.792l4.838-6.409-4.838-6.409h-2.792l2.231,2.953,1.8,2.251H-13360v2.429Z" transform="translate(13379 -4837)"/>
  </g>
</svg>
